<?xml version="1.0" standalone="no"?>
<!DOCTYPE svg PUBLIC "-//W3C//DTD SVG 20010904//EN"
 "http://www.w3.org/TR/2001/REC-SVG-20010904/DTD/svg10.dtd">
<svg version="1.0" xmlns="http://www.w3.org/2000/svg"
 width="884.000000pt" height="748.000000pt" viewBox="0 0 884.000000 748.000000"
 preserveAspectRatio="xMidYMid meet">
<metadata>
Created by potrace 1.16, written by Peter Selinger 2001-2019
</metadata>
<g transform="translate(0.000000,748.000000) scale(0.100000,-0.100000)"
fill="#000000" stroke="none">
<path d="M5761 7050 c-107 -25 -161 -142 -111 -244 l22 -46 -56 -115 -55 -115
-108 71 c-347 230 -764 349 -1226 349 -529 0 -989 -142 -1364 -420 -18 -13
-34 -22 -37 -19 -2 2 -29 58 -60 123 -56 118 -56 120 -37 140 28 32 51 82 51
113 0 48 -41 116 -85 141 -33 19 -52 22 -102 19 -53 -2 -67 -7 -94 -32 -62
-60 -76 -132 -39 -204 32 -64 111 -110 165 -97 22 6 28 -3 88 -123 l65 -130
-30 -28 c-45 -42 -149 -170 -196 -240 -89 -132 -184 -357 -232 -549 l-10 -42
-94 -30 c-97 -32 -319 -131 -370 -166 -54 -37 -85 -150 -101 -366 -11 -156 22
-406 66 -491 10 -21 33 -46 51 -57 66 -39 276 -122 376 -148 56 -15 102 -32
102 -38 0 -7 15 -44 34 -83 34 -71 57 -93 94 -93 11 0 44 -24 74 -54 131 -128
259 -183 603 -260 l60 -13 -50 -25 c-27 -13 -66 -30 -85 -38 -19 -7 -70 -28
-112 -48 -82 -37 -98 -57 -98 -127 0 -17 -2 -34 -5 -37 -3 -3 -30 8 -60 23
-30 15 -80 33 -110 39 -182 38 -387 -128 -476 -387 -26 -75 -24 -105 6 -133
14 -13 25 -32 25 -43 0 -18 -5 -19 -49 -13 -27 3 -56 3 -66 0 -54 -21 -192
-437 -226 -681 -11 -80 -11 -94 3 -115 14 -22 14 -30 -4 -98 -27 -101 -29
-288 -5 -380 27 -100 73 -185 139 -256 58 -62 62 -64 109 -64 36 0 60 -7 87
-24 105 -70 222 -49 222 39 0 8 -21 38 -46 67 -57 64 -86 126 -87 187 -1 77
46 141 93 126 11 -3 34 -31 52 -60 39 -65 72 -82 123 -61 26 11 36 23 44 54
21 76 -18 203 -89 291 l-31 39 37 73 c73 146 214 502 214 541 0 11 -13 33 -29
49 l-29 29 30 60 c29 59 80 110 110 110 18 0 19 -4 48 -160 43 -233 150 -600
188 -644 10 -10 41 -30 70 -43 41 -18 52 -27 48 -41 -3 -9 -8 -33 -11 -52 -8
-45 -20 -60 -76 -92 -25 -15 -63 -46 -83 -68 -35 -39 -96 -151 -109 -200 -3
-11 -12 -20 -21 -20 -21 0 -51 -101 -117 -385 -52 -229 -53 -230 -96 -280
-108 -122 -221 -451 -169 -494 20 -17 120 -49 216 -71 311 -69 654 -71 950 -4
78 18 218 63 224 72 2 4 0 68 -5 142 -19 268 -114 848 -150 909 -20 34 -20 36
-3 129 l17 94 44 -6 c24 -3 127 -11 230 -17 185 -11 461 -1 573 21 30 5 47 5
51 -2 4 -6 10 -41 14 -77 3 -36 9 -75 11 -86 4 -15 -2 -25 -20 -35 -33 -17
-49 -62 -85 -240 -46 -225 -111 -690 -111 -793 0 -36 3 -39 46 -58 116 -52
439 -100 669 -100 238 0 457 33 634 98 l74 27 -6 75 c-11 145 -73 289 -176
410 l-54 64 -33 166 c-58 298 -80 373 -156 523 -54 107 -79 146 -115 178 -25
22 -51 40 -57 40 -25 0 -38 20 -51 76 -7 32 -11 62 -9 65 2 4 35 18 72 30 101
33 122 60 171 213 39 121 90 342 127 544 10 57 21 92 29 92 25 0 64 -41 96
-104 l33 -65 -28 -26 c-26 -24 -28 -31 -24 -78 5 -60 137 -400 200 -515 l40
-73 -35 -54 c-52 -77 -68 -121 -73 -200 -6 -85 7 -114 58 -133 55 -21 89 -4
130 66 54 91 107 80 124 -24 10 -65 -17 -138 -81 -218 -61 -77 -67 -105 -30
-141 36 -37 82 -33 187 16 54 25 97 39 110 36 15 -4 35 8 76 46 71 67 115 136
149 234 25 71 27 91 27 218 0 116 -4 151 -22 204 -18 57 -19 67 -6 85 20 29
18 67 -16 229 -47 228 -144 488 -208 560 -13 15 -25 17 -54 13 -49 -8 -56 7
-23 54 32 46 30 74 -11 174 -109 269 -361 418 -543 322 -30 -15 -63 -33 -73
-39 -26 -17 -38 1 -47 67 -4 30 -16 65 -26 76 -10 11 -54 33 -99 50 -135 51
-206 82 -206 90 0 4 28 13 63 19 251 48 440 131 558 244 33 31 58 46 85 50 51
8 103 66 129 141 18 52 22 57 60 66 205 51 457 162 488 216 55 98 84 421 54
609 -22 137 -42 196 -75 228 -32 30 -258 136 -400 187 -52 18 -95 38 -97 44
-91 327 -219 564 -416 770 -49 52 -89 97 -89 101 0 4 26 58 57 121 l57 114 54
0 c72 0 125 30 152 85 62 129 -45 275 -179 245z m-3076 -91 c25 -24 30 -37 30
-75 0 -39 -5 -50 -33 -75 -97 -87 -230 26 -162 138 35 58 111 63 165 12z
m3178 5 c14 -14 29 -39 32 -55 8 -38 -11 -95 -38 -114 -25 -17 -89 -20 -118
-5 -27 15 -49 62 -49 105 0 84 113 129 173 69z m-1383 -104 c161 -20 260 -43
260 -59 0 -35 -32 -146 -56 -196 -47 -101 -20 -95 -468 -95 -432 0 -414 -3
-456 65 -19 31 -68 181 -73 224 -6 48 554 91 793 61z m-789 -179 c17 -52 39
-112 49 -132 34 -66 37 -66 483 -64 439 3 426 1 468 68 18 30 44 106 69 205 9
37 14 42 38 42 41 0 67 -22 54 -46 -5 -10 -26 -81 -47 -158 -20 -76 -42 -147
-48 -158 -7 -11 -30 -29 -51 -40 -37 -19 -54 -20 -305 -16 -146 1 -347 1 -447
-2 -252 -6 -259 -1 -324 220 -58 196 -57 186 -24 198 38 13 46 2 85 -117z
m-161 16 c10 -23 30 -89 45 -146 32 -126 43 -150 92 -190 62 -51 116 -61 278
-51 77 4 250 6 385 4 349 -7 347 -7 407 22 69 33 87 58 112 156 30 113 69 240
79 256 19 29 353 -120 473 -211 110 -83 118 -92 140 -163 11 -37 36 -102 55
-144 117 -267 212 -685 236 -1038 19 -282 -4 -530 -77 -820 -39 -154 -62 -195
-133 -241 -131 -83 -527 -173 -962 -217 -510 -52 -1275 8 -1689 133 -140 42
-177 61 -223 111 -49 54 -51 58 -91 207 -47 171 -73 310 -93 497 -21 203 -14
567 15 788 40 291 81 535 98 567 24 49 177 202 271 271 111 82 257 163 384
213 56 22 112 44 123 48 29 12 54 -5 75 -52z m2151 -403 c203 -212 352 -552
410 -939 40 -265 24 -716 -35 -947 -28 -112 -64 -192 -88 -196 -16 -3 -17 0
-2 40 26 74 63 229 86 364 19 112 22 166 23 404 0 295 -9 382 -61 619 -27 118
-41 161 -56 161 -11 0 -11 0 22 -192 74 -437 58 -820 -52 -1213 -59 -214 -116
-295 -256 -368 -171 -89 -623 -189 -1037 -229 -167 -16 -642 -16 -810 0 -478
46 -860 124 -1061 216 -111 52 -189 134 -233 246 -48 121 -107 363 -125 515
-29 240 -15 784 25 940 21 84 63 202 92 260 40 82 98 177 104 171 2 -2 -12
-103 -31 -223 -59 -364 -69 -464 -69 -733 0 -263 12 -394 59 -633 31 -157 88
-350 115 -388 30 -42 110 -96 181 -123 138 -52 511 -120 863 -158 161 -17 761
-17 920 0 569 62 962 169 1046 285 35 48 50 95 89 268 78 351 81 781 10 1154
-44 229 -122 486 -215 710 -19 47 -35 88 -35 91 0 12 58 -38 121 -102z m-3376
-1221 c0 -297 4 -483 13 -552 6 -57 10 -106 7 -109 -11 -11 -214 50 -292 88
-61 29 -84 45 -88 62 -25 110 -44 552 -30 711 l7 88 81 41 c65 33 273 115 297
117 3 1 5 -200 5 -446z m3952 402 c54 -20 134 -55 178 -78 80 -43 80 -43 88
-93 24 -143 3 -683 -29 -745 -9 -19 -37 -37 -96 -62 -85 -36 -257 -93 -262
-86 -1 2 2 67 6 144 5 77 8 323 6 548 -2 224 0 407 3 407 4 0 52 -16 106 -35z
m-4371 -392 c-1 -137 3 -309 7 -383 7 -124 7 -134 -8 -119 -31 30 -65 245 -65
406 0 126 38 343 59 343 5 0 8 -111 7 -247z m4699 214 c7 -18 21 -73 30 -123
23 -120 16 -382 -13 -498 -19 -73 -43 -118 -58 -103 -3 3 -1 59 6 124 13 121
16 577 5 613 -11 34 15 23 30 -13z m-3045 -1552 c74 -9 186 -21 249 -28 l114
-12 13 -55 c21 -88 25 -84 -72 -76 -264 22 -604 109 -588 151 8 19 90 45 124
40 14 -2 86 -11 160 -20z m1645 1 l50 -24 -66 -31 c-117 -56 -273 -89 -603
-126 l-48 -6 7 37 c3 20 12 53 18 73 l12 35 190 22 c105 12 217 27 250 32 98
16 137 13 190 -12z m-1739 -170 c236 -59 478 -86 789 -86 483 0 820 58 1017
177 65 39 86 35 113 -17 44 -86 66 -350 46 -555 -14 -140 -70 -424 -106 -543
-37 -118 -66 -147 -207 -207 -316 -134 -430 -218 -474 -347 -8 -26 -19 -50
-24 -53 -19 -12 -122 -26 -240 -34 -116 -8 -442 2 -482 15 -9 3 -35 43 -58 89
-70 143 -151 204 -400 304 -158 63 -176 79 -217 184 -89 233 -136 508 -137
807 -1 243 11 316 57 360 l31 28 97 -48 c56 -29 138 -59 195 -74z m1064 106
c0 -10 -7 -41 -15 -69 -15 -49 -16 -50 -61 -57 -60 -8 -357 -8 -416 0 -52 7
-64 22 -74 93 l-7 51 287 0 c270 0 286 -1 286 -18z m986 -63 c17 -16 23 -40
32 -117 38 -320 17 -607 -69 -962 -37 -157 -84 -310 -101 -332 -7 -9 -75 -42
-151 -72 -229 -93 -329 -151 -434 -253 -52 -51 -69 -62 -108 -68 -26 -3 -49
-4 -51 -2 -8 7 65 181 99 238 46 76 108 118 322 215 219 100 236 110 269 167
74 127 158 678 141 927 -6 100 -28 250 -41 283 -5 14 -1 14 33 5 21 -5 47 -19
59 -29z m-2436 14 c0 -10 -5 -38 -11 -62 -17 -75 -27 -296 -18 -425 13 -200
59 -426 131 -645 48 -143 69 -162 268 -241 193 -77 247 -113 307 -208 29 -44
103 -216 103 -238 0 -3 -25 -4 -55 -2 -54 5 -58 7 -129 80 -85 86 -152 127
-351 216 -77 35 -148 69 -158 77 -25 18 -107 286 -151 490 -66 306 -86 540
-66 770 6 77 17 146 23 154 11 13 83 50 100 51 4 0 7 -8 7 -17z m-352 -128 c3
-2 -5 -25 -17 -50 -37 -79 -54 -163 -48 -240 7 -92 20 -133 63 -196 19 -28 33
-53 32 -54 -41 -35 -143 -45 -211 -21 -97 35 -257 159 -257 199 0 32 74 176
117 228 81 98 187 154 272 144 25 -3 46 -7 49 -10z m3172 4 c68 -15 157 -76
213 -148 49 -62 117 -192 117 -223 0 -28 -118 -140 -180 -170 -101 -50 -227
-56 -285 -14 -18 13 -17 15 4 49 78 126 88 300 26 432 -31 64 -31 69 -3 77 35
9 52 9 108 -3z m-3127 -216 c-4 -116 -2 -161 10 -208 9 -32 14 -61 11 -64 -7
-7 -33 29 -59 84 -42 85 -32 229 20 309 10 14 19 26 20 26 2 0 0 -66 -2 -147z
m97 -60 c-1 -186 -2 -206 -16 -188 -27 36 -36 98 -32 234 3 138 8 161 34 161
12 0 14 -33 14 -207z m2884 163 c17 -22 21 -46 24 -134 5 -121 -7 -179 -44
-219 l-25 -28 8 70 c9 80 7 274 -3 318 -8 36 10 34 40 -7z m-3409 -402 c14 -9
25 -23 25 -31 0 -8 5 -11 10 -8 6 4 48 -9 93 -29 45 -19 107 -41 137 -47 30
-7 56 -14 58 -15 2 -1 -5 -25 -15 -54 -20 -57 -12 -55 -118 -30 -65 16 -159
59 -212 98 l-41 31 16 51 c9 27 17 50 19 50 2 0 15 -7 28 -16z m3885 -76 c0
-36 -166 -123 -290 -152 l-59 -14 -26 55 c-14 31 -25 57 -25 59 0 2 12 4 28 4
73 0 227 59 302 115 l35 26 17 -38 c10 -21 18 -45 18 -55z m-3998 -31 c87 -87
219 -153 376 -187 46 -10 86 -21 89 -23 5 -6 -68 -189 -160 -397 l-64 -145
-67 -3 c-87 -4 -200 18 -304 58 -118 45 -120 51 -93 198 25 132 74 306 128
453 20 54 38 99 39 99 2 0 27 -24 56 -53z m4128 -34 c78 -187 173 -544 157
-588 -9 -23 -80 -63 -160 -90 -59 -19 -230 -45 -304 -45 -19 0 -55 62 -108
185 -54 123 -135 339 -135 359 0 9 20 16 57 20 162 19 433 157 433 220 0 40
30 9 60 -61z m158 -755 c28 -131 22 -280 -13 -348 -19 -36 -70 -54 -141 -48
-64 5 -80 18 -130 105 -42 72 -73 93 -133 93 -51 0 -101 -42 -126 -103 l-17
-42 -15 30 c-22 40 -8 88 54 193 l48 80 55 6 c183 19 242 30 314 55 45 15 84
29 87 30 3 0 11 -23 17 -51z m-4396 6 c48 -13 138 -28 200 -34 l113 -11 43
-47 c49 -54 102 -153 102 -191 0 -25 -16 -61 -22 -51 -2 3 -14 27 -27 53 -28
55 -62 77 -120 77 -51 0 -84 -27 -126 -105 -37 -69 -77 -95 -148 -95 -60 0
-108 20 -130 53 -35 54 -44 203 -20 350 5 34 9 38 27 32 12 -4 60 -17 108 -31z
m1329 -140 c83 -43 231 -159 243 -191 4 -9 0 -48 -8 -87 -8 -39 -22 -109 -31
-155 -29 -149 -77 -221 -182 -273 -58 -28 -77 -33 -143 -33 -125 1 -227 61
-285 167 -57 104 -42 301 29 367 21 20 20 17 -8 -41 -27 -55 -31 -72 -30 -143
1 -96 23 -154 81 -212 58 -58 122 -84 205 -84 221 1 366 217 276 412 -52 114
-150 181 -275 187 -83 5 -78 -5 -47 109 l14 52 38 -16 c20 -8 76 -35 123 -59z
m1730 25 c4 -19 10 -51 13 -71 l7 -38 -59 0 c-92 0 -148 -24 -218 -94 -93 -93
-118 -201 -74 -318 28 -76 71 -122 146 -159 200 -99 425 38 428 260 1 36 -2
82 -6 101 -8 34 -8 34 8 -5 24 -61 15 -178 -19 -246 -38 -78 -78 -121 -144
-157 -110 -58 -223 -52 -331 18 -101 65 -138 149 -154 349 l-11 135 56 52 c31
29 78 67 103 85 63 43 227 129 239 126 5 -2 12 -19 16 -38z m-575 -111 c-12
-62 -39 -75 -182 -83 -70 -4 -206 -5 -301 -3 -192 5 -201 8 -221 74 l-10 35
111 -8 c138 -10 434 -7 502 6 28 5 63 9 79 10 27 1 28 -1 22 -31z m-1217 -55
c96 -31 173 -124 187 -227 19 -138 -114 -277 -265 -276 -126 1 -235 117 -233
250 2 129 70 226 181 256 62 17 71 17 130 -3z m1846 -7 c206 -96 196 -407 -16
-481 -70 -25 -146 -19 -205 15 -94 53 -134 120 -134 222 0 193 188 322 355
244z m-2265 -433 c48 -94 129 -174 205 -202 192 -73 409 3 508 177 16 29 31
52 32 50 7 -6 85 -478 100 -598 8 -68 15 -152 15 -185 l0 -60 -25 68 c-69 198
-205 325 -421 396 -163 53 -357 60 -497 19 -20 -6 -40 -9 -43 -6 -3 3 11 77
30 164 19 88 38 178 42 202 4 23 9 42 13 42 3 0 22 -30 41 -67z m1862 -120
c30 -31 76 -63 112 -80 54 -24 73 -28 161 -28 92 0 105 3 167 32 90 42 150
100 193 185 23 47 37 65 41 55 14 -38 81 -387 73 -387 -4 0 -38 7 -76 16 -99
23 -267 21 -377 -5 -211 -50 -400 -183 -478 -336 -28 -54 -58 -143 -58 -172 0
-12 -5 -23 -11 -23 -6 0 -8 16 -5 43 3 23 20 148 37 277 32 247 57 402 85 527
l17 75 33 -63 c19 -35 57 -87 86 -116z m-1536 -278 c32 -8 101 -36 153 -61
163 -80 268 -205 307 -367 9 -37 15 -69 13 -72 -13 -13 -275 -56 -401 -66
-225 -19 -456 7 -688 75 -85 25 -83 20 -54 126 46 173 115 284 204 330 112 57
316 73 466 35z m2197 0 c109 -28 184 -82 242 -175 31 -49 83 -200 87 -254 l3
-40 -75 -23 c-313 -96 -676 -106 -1022 -27 -64 15 -68 17 -68 43 0 41 28 129
63 194 68 129 255 248 452 287 71 14 257 11 318 -5z"/>
<path d="M3211 5334 c-202 -54 -331 -222 -331 -429 0 -131 39 -226 131 -317
163 -164 419 -170 595 -15 115 101 170 261 140 406 -53 254 -300 418 -535 355z
m194 -49 c150 -39 266 -169 296 -329 28 -155 -70 -335 -226 -412 -54 -26 -70
-29 -155 -29 -86 0 -101 3 -162 32 -128 61 -206 165 -230 306 -26 157 64 326
214 403 89 45 167 54 263 29z"/>
<path d="M3203 5193 c-57 -20 -138 -95 -171 -157 -22 -43 -26 -64 -26 -136 -1
-73 3 -92 26 -135 58 -111 166 -179 283 -179 85 0 143 23 210 85 73 67 99 127
99 224 -1 132 -58 226 -176 285 -52 25 -72 30 -132 29 -39 0 -90 -7 -113 -16z
m216 -68 c110 -57 107 -198 -6 -236 -80 -26 -173 41 -173 125 0 91 99 153 179
111z"/>
<path d="M4961 5335 c-128 -29 -226 -111 -290 -245 -35 -74 -36 -77 -36 -200
0 -119 2 -128 29 -183 101 -200 342 -295 547 -217 116 44 218 154 259 279 32
99 26 230 -13 315 -89 192 -295 297 -496 251z m209 -55 c60 -17 142 -73 186
-127 174 -214 75 -543 -189 -624 -142 -44 -278 -7 -385 105 -147 153 -146 383
1 543 97 106 243 145 387 103z"/>
<path d="M4989 5207 c-103 -29 -172 -89 -217 -186 -91 -198 65 -434 287 -434
83 0 143 25 210 88 135 126 128 339 -15 464 -75 67 -177 93 -265 68z m202
-103 c52 -50 55 -143 6 -192 -33 -33 -115 -42 -152 -18 -39 25 -65 75 -65 123
0 103 136 159 211 87z"/>
<path d="M3923 4519 c-19 -19 -16 -53 5 -72 55 -50 273 -88 395 -69 83 13 179
45 202 68 22 22 18 51 -7 68 -20 13 -30 13 -78 0 -92 -24 -232 -28 -355 -10
-60 9 -119 19 -130 22 -11 3 -26 -1 -32 -7z m206 -59 c92 -8 146 -8 215 1 121
15 125 16 126 4 1 -5 -36 -20 -82 -33 -109 -29 -263 -26 -350 7 -54 21 -95 50
-52 38 11 -4 75 -11 143 -17z"/>
<path d="M3225 3475 c-135 -47 -151 -251 -24 -315 92 -47 191 -13 241 84 40
78 0 184 -84 225 -51 24 -78 26 -133 6z m133 -61 c32 -21 55 -80 48 -123 -13
-82 -126 -131 -189 -81 -61 48 -71 118 -27 180 35 49 112 60 168 24z"/>
<path d="M3236 3379 c-38 -30 -37 -90 3 -130 34 -34 54 -36 97 -10 37 23 48
62 29 108 -23 55 -81 70 -129 32z"/>
<path d="M5130 3468 c-111 -60 -123 -227 -21 -295 68 -46 149 -42 207 9 47 41
64 77 64 134 0 130 -136 212 -250 152z m144 -47 c82 -54 74 -171 -14 -216 -53
-28 -121 -11 -154 37 -20 29 -20 100 -1 138 30 58 113 77 169 41z"/>
<path d="M5151 3374 c-28 -36 -26 -76 5 -113 31 -37 69 -41 108 -10 30 24 34
64 11 108 -25 50 -91 57 -124 15z"/>
<path d="M4129 3287 c-153 -43 -252 -171 -253 -327 -1 -66 3 -84 32 -142 37
-75 101 -139 172 -171 69 -31 181 -34 252 -7 75 28 150 96 185 168 24 50 28
68 28 147 0 74 -5 99 -24 137 -75 152 -244 237 -392 195z m205 -66 c140 -68
208 -241 146 -373 -71 -151 -244 -219 -385 -153 -130 62 -200 213 -161 347 47
163 247 253 400 179z"/>
<path d="M4115 3161 c-80 -37 -125 -111 -125 -206 0 -68 17 -110 61 -153 86
-85 185 -92 290 -23 82 55 119 166 85 256 -19 48 -80 109 -132 131 -47 20
-131 17 -179 -5z m163 -26 c147 -62 166 -261 32 -335 -130 -71 -283 17 -283
164 0 82 43 144 120 171 50 19 86 18 131 0z"/>
<path d="M3221 1722 c-52 -26 -74 -63 -79 -132 -4 -53 -1 -65 22 -100 36 -55
75 -73 150 -68 100 6 156 64 156 161 0 118 -139 196 -249 139z m145 -11 c114
-52 113 -212 -2 -262 -63 -28 -117 -19 -166 30 -50 51 -58 96 -27 158 18 36
35 54 69 71 53 27 73 27 126 3z"/>
<path d="M5045 1736 c-97 -43 -128 -168 -65 -254 69 -93 231 -77 285 28 23 44
19 121 -8 161 -43 65 -143 96 -212 65z m147 -23 c63 -38 93 -131 61 -193 -56
-108 -217 -108 -274 0 -11 19 -19 48 -19 65 0 44 40 107 80 127 45 23 114 23
152 1z"/>
</g>
</svg>
